Coordinates
version=1
nRows=54
nColumns=12
inDegrees=yes

Units are S.I. units (second, meters, Newtons, ...)
Angles are in degrees

endheader
time	SC_y	SC_z	SC_x	AC_y	AC_z	AC_x	GH_y	GH_z	GH_yy	EL_x	PS_y
       0.0               -20.8          6.938          28.47          39.06         -18.17          18.51          86.09          89.65           96.5          123.7          136.6
  0.008758               -20.8          6.941          28.47          39.06         -18.17           18.5          86.09          89.65          96.48          123.7          136.6
   0.01752               -20.8          6.944          28.47          39.06         -18.17           18.5           86.1          89.64          96.45          123.7          136.6
   0.02627               -20.8          6.948          28.48          39.06         -18.17           18.5           86.1          89.63          96.42          123.7          136.6
   0.03503               -20.8          6.951          28.48          39.06         -18.16           18.5          86.11          89.63           96.4          123.7          136.6
   0.04379              -20.79          6.955          28.49          39.06         -18.16           18.5          86.12          89.62          96.37          123.7          136.6
   0.05255              -20.79           6.96          28.49          39.05         -18.16           18.5          86.12          89.61          96.33          123.6          136.6
    0.0613              -20.79          6.964           28.5          39.05         -18.15           18.5          86.13           89.6           96.3          123.6          136.6
   0.07006              -20.79          6.969           28.5          39.05         -18.15          18.49          86.14          89.59          96.26          123.6          136.6
   0.07882              -20.79          6.974          28.51          39.05         -18.15          18.49          86.15          89.58          96.22          123.6          136.6
   0.08758              -20.79           6.98          28.51          39.05         -18.14          18.49          86.15          89.57          96.18          123.5          136.6
   0.09634              -20.79          6.986          28.52          39.04         -18.14          18.49          86.16          89.56          96.13          123.5          136.6
    0.1051              -20.79          6.992          28.53          39.04         -18.14          18.49          86.17          89.55          96.08          123.5          136.6
    0.1139              -20.79          6.999          28.54          39.04         -18.13          18.48          86.19          89.53          96.03          123.5          136.6
    0.1226              -20.79          7.007          28.54          39.04         -18.13          18.48           86.2          89.52          95.97          123.4          136.6
    0.1314              -20.79          7.015          28.55          39.03         -18.12          18.48          86.21           89.5          95.91          123.4          136.6
    0.1401              -20.79          7.024          28.56          39.03         -18.12          18.47          86.23          89.48          95.84          123.3          136.5
    0.1489              -20.79          7.033          28.57          39.03         -18.11          18.47          86.24          89.46          95.77          123.3          136.5
    0.1576              -20.79          7.044          28.59          39.02          -18.1          18.47          86.26          89.44          95.68          123.2          136.5
    0.1664              -20.79          7.055           28.6          39.02         -18.09          18.46          86.28          89.42           95.6          123.2          136.5
    0.1752              -20.78          7.068          28.61          39.01         -18.09          18.46           86.3           89.4           95.5          123.1          136.5
    0.1839              -20.78          7.082          28.63          39.01         -18.08          18.45          86.32          89.37          95.39          123.1          136.5
    0.1927              -20.78          7.098          28.65           39.0         -18.07          18.45          86.34          89.34          95.27          123.0          136.5
    0.2014              -20.78          7.115          28.67          38.99         -18.05          18.44          86.37           89.3          95.14          122.9          136.4
    0.2102              -20.78          7.134          28.69          38.99         -18.04          18.43           86.4          89.26          94.99          122.8          136.4
    0.2189              -20.78          7.155          28.71          38.98         -18.03          18.42          86.44          89.22          94.83          122.7          136.4
    0.2277              -20.77          7.179          28.74          38.97         -18.01          18.41          86.48          89.18          94.65          122.6          136.4
    0.2365              -20.77          7.205          28.77          38.96         -17.99           18.4          86.52          89.12          94.44          122.5          136.3
    0.2452              -20.77          7.236          28.81          38.95         -17.97          18.39          86.57          89.06          94.21          122.3          136.3
     0.254              -20.77           7.27          28.85          38.93         -17.95          18.38          86.62          88.99          93.94          122.2          136.3
    0.2627              -20.76          7.309          28.89          38.92         -17.92          18.36          86.69          88.92          93.64          122.0          136.2
    0.2715              -20.76          7.354          28.94           38.9         -17.89          18.35          86.76          88.83          93.29          121.8          136.2
    0.2802              -20.75          7.406           29.0          38.88         -17.86          18.33          86.84          88.72          92.89          121.5          136.1
     0.289              -20.75          7.466          29.07          38.86         -17.82           18.3          86.94           88.6          92.43          121.2          136.1
    0.2978              -20.74          7.537          29.15          38.83         -17.77          18.28          87.05          88.46          91.89          120.9          136.0
    0.3065              -20.74           7.62          29.25           38.8         -17.72          18.25          87.19           88.3          91.25          120.5          135.9
    0.3153              -20.73          7.719          29.36          38.76         -17.65          18.21          87.35           88.1          90.48          120.0          135.8
     0.324              -20.72          7.837          29.49          38.72         -17.57          18.16          87.54          87.87          89.57          119.4          135.6
    0.3328               -20.7          7.981          29.66          38.66         -17.48          18.11          87.77          87.58          88.47          118.8          135.5
    0.3416              -20.69          8.156          29.86          38.59         -17.36          18.04          88.05          87.23          87.12          117.9          135.3
    0.3503              -20.67          8.372          30.11          38.51         -17.22          17.96           88.4           86.8          85.45          116.9          135.0
    0.3591              -20.64          8.642          30.41          38.41         -17.04          17.86          88.83          86.27          83.38          115.6          134.7
    0.3678              -20.61          8.981           30.8          38.28         -16.81          17.73          89.38          85.59          80.76          114.0          134.3
    0.3766              -20.57          9.413           31.3          38.11         -16.52          17.56          90.08          84.73          77.44          111.9          133.9
    0.3853              -20.53          9.965          31.93           37.9         -16.16          17.35          90.97          83.64          73.18          109.2          133.2
    0.3941              -20.46          10.67          32.74          37.63         -15.68          17.08          92.11          82.23          67.72          105.9          132.4
    0.4029              -20.38          11.58          33.77          37.28         -15.08          16.74          93.57          80.43          60.75          101.5          131.4
    0.4116              -20.28          12.72          35.08          36.84         -14.32           16.3          95.41          78.16          51.98          96.06          130.1
    0.4204              -20.15          14.11          36.66          36.31          -13.4          15.78          97.65           75.4          41.29          89.41          128.6
    0.4291              -20.01          15.71           38.5          35.69         -12.33          15.16          100.2          72.21           28.9          81.71          126.8
    0.4379              -19.85          17.46          40.49          35.02         -11.17           14.5          103.0          68.74          15.49          73.36          124.8
    0.4466               -19.7           19.2          42.48          34.35         -10.01          13.84          105.9          65.28          2.072          65.02          122.8
    0.4554              -19.55          20.81          44.32          33.73         -8.937          13.23          108.5          62.08         -10.32          57.32          121.0
    0.4642              -19.43          22.19          45.91           33.2         -8.013           12.7          110.7          59.33          -21.0          50.67          119.5
